# xmcd
#
# Track frame offsets: 
#        150
#        17421
#        34393
#        52468
#        69217
#        86318
#        105567
#        120617
#        136025
#        155726
#        173337
#        190774
#        209636
#        225147
#        243603
#        258313
#
# Disc length: 3691 seconds
#
# Revision: 0
# Processed by: cddbd v1.5.2PL0 Copyright (c) Steve Scherf et al.
# Submitted via: ExactAudioCopy v1.0b4
#
DISCID=cd0e6910
DTITLE=Various Artist - Balade Za Sva Vremena
DYEAR=1900
DGENRE=Country
TTITLE0=Ceca Ražnjatović - Kukavica
TTITLE1=Haris Dzinović - Rano je za tugu
TTITLE2=Lepa Brena - Zaželi srecu drugima
TTITLE3=Šako Polumenta - Dišem za tebe
TTITLE4=Viki Miljković - Loša sreca
TTITLE5=Roki - Žena
TTITLE6=Dragana Mirković - Tugo mojih dana
TTITLE7=Džej Ramadanovski - Sunce ljubavi
TTITLE8=Mira Škorić - U službi ljubavi
TTITLE9=Željo Šašić - Vežite mi ruke
TTITLE10=Ana Bekuta - Kralj ponoći
TTITLE11=Aca Lukas - Umri u samoći
TTITLE12=Željko Samardzić - Imaš me u šaci
TTITLE13=Ceca Ražnjatović - Oprosti mi suze
TTITLE14=Lepa Brena - Golube
TTITLE15=Džej Ramadanovski - Nedelja
EXTD=
EXTT0=
EXTT1=
EXTT2=
EXTT3=
EXTT4=
EXTT5=
EXTT6=
EXTT7=
EXTT8=
EXTT9=
EXTT10=
EXTT11=
EXTT12=
EXTT13=
EXTT14=
EXTT15=
PLAYORDER=
